# xmcd
#
# Track frame offsets: 
#        150
#        26397
#        40942
#        70330
#        99192
#        115592
#        144617
#        160097
#        183012
#        203182
#        216837
#        240427
#
# Disc length: 3554 seconds
#
# Revision: 1
# Processed by: cddbd v1.5.2PL0 Copyright (c) Steve Scherf et al.
# Submitted via: ExactAudioCopy v0.95a4
#
DISCID=970de00c
DTITLE=Big Al Dupree - Positive Thinking
DYEAR=1900
DGENRE=Blues
TTITLE0=Piney Brown
TTITLE1=Low-Down Dirty Shame
TTITLE2=Positive Thinking
TTITLE3=When Lights Are Low
TTITLE4=The Thing And I
TTITLE5=Bold Woman
TTITLE6=Kidney Stew Blues
TTITLE7=My Woman Is Evil
TTITLE8=Buck 'N' Jump
TTITLE9=Early This Morning
TTITLE10=Rusty Dusty
TTITLE11=Blues For Big Al
EXTD=
EXTT0=
EXTT1=
EXTT2=
EXTT3=
EXTT4=
EXTT5=
EXTT6=
EXTT7=
EXTT8=
EXTT9=
EXTT10=
EXTT11=
PLAYORDER=
